# xmcd
#
# Track frame offsets:
# 150
# 15517
# 27022
# 37435
# 56699
# 70220
# 81695
# 95614
# 117783
# 141701
# 164817
# 188866
# 198781
# 222638
# 233282
# 245503
# 257055
# 282284
# 293343
#
# Disc length: 4094 seconds
#
# Revision: 0
# Processed by: cddbd v1.4PL0 Copyright (c) Steve Scherf et al.
# Submitted via: Audion 3.0.2 (http://www.panic.com/audion/)
#
DISCID=220ffc13
DTITLE=Various Artist - Brazilian Summer 2
DYEAR=1900
DGENRE=
TTITLE0=Bossa Nova Cha Cha
TTITLE1=O Pato	
TTITLE2=Chup Chup, I Got Away
TTITLE3=Corcovado (Quiet Nights Of Quiet Stars)
TTITLE4=Fried Bananas
TTITLE5=We And The Sea (Nos E Ou Mar)
TTITLE6=Ponteio
TTITLE7=Waves
TTITLE8=Rio Night
TTITLE9=Water To Drink	
TTITLE10=Tamba
TTITLE11=Fascinatin' Rhythm
TTITLE12=Portrait In Black and White(aka Zingaro)
TTITLE13=Rio
TTITLE14=Beloved Melancholy
TTITLE15=Tentacao Do Inconveniente
TTITLE16=Todos Locos	
TTITLE17=Bert's Bossa Nova
TTITLE18=The Boy From Ipanema
EXTD=
EXTT0=
EXTT1=
EXTT2=
EXTT3=
EXTT4=
EXTT5=
EXTT6=
EXTT7=
EXTT8=
EXTT9=
EXTT10=
EXTT11=
EXTT12=
EXTT13=
EXTT14=
EXTT15=
EXTT16=
EXTT17=
EXTT18=
PLAYORDER=
